<svg width="16" height="16" viewBox="0 0 16 16" fill="none" xmlns="http://www.w3.org/2000/svg">
<g clip-path="url(#clip0_5014_4955)">
<path d="M11.7667 4.23366C10.8 3.26699 9.47334 2.66699 8.00001 2.66699C5.05334 2.66699 2.67334 5.05366 2.67334 8.00033C2.67334 10.947 5.05334 13.3337 8.00001 13.3337C10.4867 13.3337 12.56 11.6337 13.1533 9.33366H11.7667C11.22 10.887 9.74001 12.0003 8.00001 12.0003C5.79334 12.0003 4.00001 10.207 4.00001 8.00033C4.00001 5.79366 5.79334 4.00033 8.00001 4.00033C9.10667 4.00033 10.0933 4.46033 10.8133 5.18699L8.66667 7.33366H13.3333V2.66699L11.7667 4.23366Z" fill="#0D9488"/>
</g>
<defs>
<clipPath id="clip0_5014_4955">
<rect width="16" height="16" fill="white"/>
</clipPath>
</defs>
</svg>
