<svg width="16" height="16" viewBox="0 0 16 16" fill="none" xmlns="http://www.w3.org/2000/svg">
<path d="M7.9999 4.79961C7.11625 4.79961 6.3999 4.08326 6.3999 3.19961C6.3999 2.31595 7.11625 1.59961 7.9999 1.59961C8.88356 1.59961 9.5999 2.31595 9.5999 3.19961C9.5999 4.08326 8.88356 4.79961 7.9999 4.79961Z" fill="#CCD7EC"/>
<path d="M7.9999 9.59961C7.11625 9.59961 6.3999 8.88327 6.3999 7.99961C6.3999 7.11595 7.11625 6.39961 7.9999 6.39961C8.88356 6.39961 9.5999 7.11595 9.5999 7.99961C9.5999 8.88327 8.88356 9.59961 7.9999 9.59961Z" fill="#CCD7EC"/>
<path d="M7.9999 14.3996C7.11625 14.3996 6.3999 13.6833 6.3999 12.7996C6.3999 11.916 7.11625 11.1996 7.9999 11.1996C8.88356 11.1996 9.5999 11.916 9.5999 12.7996C9.5999 13.6833 8.88356 14.3996 7.9999 14.3996Z" fill="#CCD7EC"/>
</svg>
