<svg width="36" height="36" viewBox="0 0 36 36" fill="none" xmlns="http://www.w3.org/2000/svg">
<g clip-path="url(#clip0_2755_6240)">
<path d="M28.6645 2.6748H12.1495V9.52341H32.1916V6.20059C32.1916 4.25629 30.6093 2.6748 28.6645 2.6748Z" fill="#E5E7EB"/>
<path d="M19.3159 10.5774H0V4.2226C0 1.89404 1.89487 0 4.22424 0H10.4002C11.0141 0 11.6054 0.129364 12.1426 0.372437C12.893 0.710541 13.5376 1.26782 13.9897 1.99594L19.3159 10.5774Z" fill="#0D9488"/>
<path d="M36 12V32.4697C36 34.4165 34.4152 35.9999 32.4676 35.9999H3.53238C1.58478 35.9999 0 34.4165 0 32.4697V8.46899H32.4676C34.4152 8.46899 36 10.0529 36 12Z" fill="#2DD4BF"/>
<path d="M36 12V32.4697C36 34.4165 34.4152 35.9999 32.4676 35.9999H18V8.46899H32.4676C34.4152 8.46899 36 10.0529 36 12Z" fill="#00C9B0"/>
<path d="M27.4696 22.2341C27.4696 27.4561 23.2215 31.7046 17.9999 31.7046C12.7784 31.7046 8.53027 27.4561 8.53027 22.2341C8.53027 17.0128 12.7784 12.7644 17.9999 12.7644C23.2215 12.7644 27.4696 17.0128 27.4696 22.2341Z" fill="#E7ECFC"/>
<path d="M27.4697 22.2341C27.4697 27.4561 23.2215 31.7046 18 31.7046V12.7644C23.2215 12.7644 27.4697 17.0128 27.4697 22.2341Z" fill="#E5E7EB"/>
<path d="M21.0522 22.3502C20.8548 22.5175 20.6128 22.599 20.373 22.599C20.0728 22.599 19.7745 22.4719 19.5658 22.2241L19.0547 21.6182V25.5851C19.0547 26.1674 18.5822 26.6398 18 26.6398C17.4177 26.6398 16.9453 26.1674 16.9453 25.5851V21.6182L16.4341 22.2241C16.0579 22.6693 15.3929 22.7262 14.9477 22.3502C14.5027 21.9747 14.4456 21.3095 14.8211 20.8643L16.9087 18.3893C17.1809 18.0674 17.5781 17.8823 18 17.8823C18.4218 17.8823 18.819 18.0674 19.0912 18.3893L21.1789 20.8643C21.5543 21.3095 21.4972 21.9747 21.0522 22.3502Z" fill="#2DD4BF"/>
<path d="M21.0523 22.3502C20.8548 22.5175 20.6128 22.599 20.373 22.599C20.0728 22.599 19.7746 22.4719 19.5658 22.2241L19.0547 21.6182V25.5851C19.0547 26.1674 18.5823 26.6398 18 26.6398V17.8823C18.4219 17.8823 18.819 18.0674 19.0912 18.3893L21.1789 20.8643C21.5544 21.3095 21.4972 21.9747 21.0523 22.3502Z" fill="#00C9B0"/>
</g>
<defs>
<clipPath id="clip0_2755_6240">
<rect width="36" height="36" fill="white"/>
</clipPath>
</defs>
</svg>
