<svg width="30" height="30" viewBox="0 0 30 30" fill="none" xmlns="http://www.w3.org/2000/svg">
<path d="M13.0437 3C10.3273 3 8.08135 5.15351 8.08135 7.86486C8.08135 10.5762 10.3273 12.7297 13.0437 12.7297C15.7602 12.7297 18.0061 10.5762 18.0061 7.86486C18.0061 5.15351 15.7602 3 13.0437 3ZM10.0254 7.86486C10.0254 6.27697 11.3525 4.94595 13.0437 4.94595C14.735 4.94595 16.0621 6.27697 16.0621 7.86486C16.0621 9.45276 14.735 10.7838 13.0437 10.7838C11.3525 10.7838 10.0254 9.45276 10.0254 7.86486ZM9.26849 15.467C9.35143 15.4437 9.53028 15.4528 9.76615 15.6045C10.4297 16.0352 11.5806 16.6035 13.0437 16.6035C14.5069 16.6035 15.6578 16.0352 16.3226 15.6045C16.5559 15.4528 16.736 15.4437 16.819 15.4657C17.0048 15.5176 17.1896 15.573 17.3737 15.6318L18.6502 16.0404C18.8932 16.1104 19.1538 16.0829 19.3768 15.9637C19.5999 15.8445 19.7677 15.643 19.8448 15.402C19.9218 15.1609 19.902 14.8993 19.7896 14.6727C19.6772 14.446 19.4809 14.2721 19.2425 14.1879L17.9672 13.7779C17.7573 13.7114 17.5465 13.6486 17.3348 13.5898C16.5416 13.3719 15.7887 13.6326 15.2664 13.9712C14.7869 14.2826 14.0041 14.6575 13.0437 14.6575C12.0847 14.6575 11.3006 14.2813 10.8211 13.9699C10.2988 13.6326 9.54583 13.3719 8.75268 13.5898C8.541 13.6486 8.33018 13.7114 8.12023 13.7779L6.84496 14.1879C6.12054 14.4147 5.45887 14.8074 4.91245 15.3348C4.36602 15.8622 3.94987 16.5098 3.69698 17.2262C3.59978 17.5116 3.5583 17.7866 3.53497 18.0097L3.03083 22.7747C2.82347 24.3016 3.66976 25.8726 5.33901 26.2605C6.89291 26.6212 9.39161 27 13.0437 27C13.3015 27 13.5488 26.8975 13.731 26.715C13.9133 26.5326 14.0157 26.2851 14.0157 26.027C14.0157 25.769 13.9133 25.5215 13.731 25.339C13.5488 25.1566 13.3015 25.0541 13.0437 25.0541C9.52639 25.0541 7.17544 24.6908 5.77965 24.3665C5.22626 24.2368 4.86208 23.7139 4.95798 23.0303L4.96058 23.0134L5.46731 18.2134C5.48546 18.0525 5.50619 17.9436 5.53471 17.8618C5.68873 17.4312 5.94085 17.0424 6.27108 16.7262C6.60132 16.4101 7.00059 16.1753 7.43724 16.0404L8.7138 15.6318C8.89783 15.573 9.08273 15.5189 9.26849 15.467ZM26.6906 20.8768C26.7861 20.7877 26.8627 20.6803 26.9159 20.5609C26.969 20.4416 26.9975 20.3127 26.9998 20.1821C27.0022 20.0514 26.9781 19.9217 26.9293 19.8005C26.8804 19.6794 26.8076 19.5693 26.7153 19.4769C26.623 19.3845 26.5131 19.3117 26.392 19.2628C26.271 19.2138 26.1414 19.1898 26.0109 19.1921C25.8803 19.1944 25.7516 19.223 25.6324 19.2762C25.5132 19.3294 25.4059 19.406 25.3169 19.5016L20.8197 24.0032L18.9146 22.0962C18.8256 22.0006 18.7183 21.9239 18.5991 21.8708C18.4799 21.8176 18.3512 21.789 18.2206 21.7867C18.0901 21.7844 17.9605 21.8084 17.8395 21.8574C17.7184 21.9063 17.6085 21.9791 17.5162 22.0715C17.4239 22.1639 17.3511 22.274 17.3022 22.3951C17.2534 22.5163 17.2293 22.646 17.2316 22.7767C17.234 22.9073 17.2625 23.0362 17.3156 23.1555C17.3688 23.2749 17.4454 23.3823 17.5409 23.4714L20.8197 26.7535L26.6906 20.8768Z" fill="#2DD4BF"/>
</svg>
