<svg width="24" height="24" viewBox="0 0 24 24" fill="none" xmlns="http://www.w3.org/2000/svg">
<g clip-path="url(#clip0_2785_26731)">
<path d="M4 10.4V9.6H3.2V10.4H4ZM10.4 10.4V9.6H9.6V10.4H10.4ZM10.4 16.8H9.6V17.6H10.4V16.8ZM21.6 5.6H22.4V5.2688L22.1664 5.0336L21.6 5.6ZM16.8 0.8L17.3664 0.2336L17.1312 0H16.8V0.8ZM4 11.2H5.6V9.6H4V11.2ZM4.8 17.6V13.6H3.2V17.6H4.8ZM4.8 13.6V10.4H3.2V13.6H4.8ZM5.6 12.8H4V14.4H5.6V12.8ZM6.4 12C6.4 12.2122 6.31572 12.4157 6.16569 12.5657C6.01566 12.7157 5.81217 12.8 5.6 12.8V14.4C6.23652 14.4 6.84697 14.1471 7.29706 13.6971C7.74714 13.247 8 12.6365 8 12H6.4ZM5.6 11.2C5.81217 11.2 6.01566 11.2843 6.16569 11.4343C6.31572 11.5843 6.4 11.7878 6.4 12H8C8 11.3635 7.74714 10.753 7.29706 10.3029C6.84697 9.85286 6.23652 9.6 5.6 9.6V11.2ZM9.6 10.4V16.8H11.2V10.4H9.6ZM10.4 17.6H12V16H10.4V17.6ZM14.4 15.2V12H12.8V15.2H14.4ZM12 9.6H10.4V11.2H12V9.6ZM14.4 12C14.4 11.3635 14.1471 10.753 13.6971 10.3029C13.247 9.85286 12.6365 9.6 12 9.6V11.2C12.2122 11.2 12.4157 11.2843 12.5657 11.4343C12.7157 11.5843 12.8 11.7878 12.8 12H14.4ZM12 17.6C12.6365 17.6 13.247 17.3471 13.6971 16.8971C14.1471 16.447 14.4 15.8365 14.4 15.2H12.8C12.8 15.4122 12.7157 15.6157 12.5657 15.7657C12.4157 15.9157 12.2122 16 12 16V17.6ZM16 9.6V17.6H17.6V9.6H16ZM16.8 11.2H20.8V9.6H16.8V11.2ZM16.8 14.4H19.2V12.8H16.8V14.4ZM3.2 8V2.4H1.6V8H3.2ZM20.8 5.6V8H22.4V5.6H20.8ZM4 1.6H16.8V0H4V1.6ZM16.2336 1.3664L21.0336 6.1664L22.1664 5.0336L17.3664 0.2336L16.2336 1.3664ZM3.2 2.4C3.2 2.18783 3.28429 1.98434 3.43432 1.83431C3.58434 1.68429 3.78783 1.6 4 1.6V0C3.36348 0 2.75303 0.252856 2.30294 0.702944C1.85286 1.15303 1.6 1.76348 1.6 2.4H3.2ZM1.6 19.2V21.6H3.2V19.2H1.6ZM4 24H20V22.4H4V24ZM22.4 21.6V19.2H20.8V21.6H22.4ZM20 24C20.6365 24 21.247 23.7471 21.6971 23.2971C22.1471 22.847 22.4 22.2365 22.4 21.6H20.8C20.8 21.8122 20.7157 22.0157 20.5657 22.1657C20.4157 22.3157 20.2122 22.4 20 22.4V24ZM1.6 21.6C1.6 22.2365 1.85286 22.847 2.30294 23.2971C2.75303 23.7471 3.36348 24 4 24V22.4C3.78783 22.4 3.58434 22.3157 3.43432 22.1657C3.28429 22.0157 3.2 21.8122 3.2 21.6H1.6Z" fill="#0D9488"/>
</g>
<defs>
<clipPath id="clip0_2785_26731">
<rect width="24" height="24" fill="white"/>
</clipPath>
</defs>
</svg>
