<svg width="30" height="30" viewBox="0 0 30 30" fill="none" xmlns="http://www.w3.org/2000/svg">
<path d="M18.6522 15H20.2174V17.961L22.7635 19.4415L21.9809 20.8065L18.6522 18.8745V15ZM19.6957 12.9C18.3119 12.9 16.9848 13.4531 16.0064 14.4377C15.0279 15.4223 14.4783 16.7576 14.4783 18.15C14.4783 19.5424 15.0279 20.8777 16.0064 21.8623C16.9848 22.8469 18.3119 23.4 19.6957 23.4C21.0794 23.4 22.4065 22.8469 23.3849 21.8623C24.3634 20.8777 24.913 19.5424 24.913 18.15C24.913 16.7576 24.3634 15.4223 23.3849 14.4377C22.4065 13.4531 21.0794 12.9 19.6957 12.9ZM19.6957 10.8C21.6329 10.8 23.4908 11.5744 24.8606 12.9528C26.2304 14.3312 27 16.2007 27 18.15C27 20.0993 26.2304 21.9688 24.8606 23.3472C23.4908 24.7256 21.6329 25.5 19.6957 25.5C16.7843 25.5 14.2696 23.778 13.0904 21.3H3V18.15C3 15.357 8.56174 13.95 11.3478 13.95C11.9739 13.95 12.7461 14.0235 13.56 14.16C14.2217 13.1281 15.1301 12.2799 16.2021 11.6928C17.274 11.1058 18.4752 10.7988 19.6957 10.8ZM12.3913 18.15C12.3913 17.415 12.4957 16.701 12.6939 16.05C12.2557 15.9765 11.7965 15.945 11.3478 15.945C8.2487 15.945 4.98261 17.478 4.98261 18.15V19.305H12.4852C12.4238 18.9231 12.3924 18.5369 12.3913 18.15ZM11.3478 4.5C12.4548 4.5 13.5165 4.9425 14.2992 5.73015C15.082 6.5178 15.5217 7.58609 15.5217 8.7C15.5217 9.81391 15.082 10.8822 14.2992 11.6698C13.5165 12.4575 12.4548 12.9 11.3478 12.9C10.2408 12.9 9.17918 12.4575 8.39642 11.6698C7.61366 10.8822 7.17391 9.81391 7.17391 8.7C7.17391 7.58609 7.61366 6.5178 8.39642 5.73015C9.17918 4.9425 10.2408 4.5 11.3478 4.5ZM11.3478 6.495C10.7667 6.495 10.2093 6.72731 9.79834 7.14083C9.38739 7.55435 9.15652 8.1152 9.15652 8.7C9.15652 9.2848 9.38739 9.84565 9.79834 10.2592C10.2093 10.6727 10.7667 10.905 11.3478 10.905C11.929 10.905 12.4864 10.6727 12.8973 10.2592C13.3083 9.84565 13.5391 9.2848 13.5391 8.7C13.5391 8.1152 13.3083 7.55435 12.8973 7.14083C12.4864 6.72731 11.929 6.495 11.3478 6.495Z" fill="#D97706"/>
</svg>
