<svg width="46" height="47" viewBox="0 0 46 47" fill="none" xmlns="http://www.w3.org/2000/svg">
  <path d="M22.9983 22.2794C22.9983 21.9919 13.6554 7.30668 8.98389 0L22.9983 12.9364L37.3721 0C32.3413 7.54624 22.9983 22.5669 22.9983 22.2794Z" fill="white"/>
  <circle cx="23.3576" cy="6.82785" r="3.2341" fill="white"/>
  <path d="M22.2794 22.9982C21.9919 22.9982 7.30668 32.3412 0 37.0127L12.9364 22.9982L-1.24089e-06 8.62446C7.54624 13.6553 22.5669 22.9982 22.2794 22.9982Z" fill="#00FFDF"/>
  <circle cx="6.82736" cy="22.6389" r="3.2341" transform="rotate(-90 6.82736 22.6389)" fill="#00FFDF"/>
  <path d="M23.7209 22.6385C24.0083 22.6385 38.6936 13.2955 46.0002 8.62402L33.0638 22.6385L46.0002 37.0123C38.454 31.9814 23.4334 22.6385 23.7209 22.6385Z" fill="#00FFDF"/>
  <circle cx="39.1726" cy="22.9978" r="3.2341" transform="rotate(90 39.1726 22.9978)" fill="#00FFDF"/>
  <path d="M22.998 24.08C22.998 24.3675 32.341 39.0527 37.0125 46.3594L22.998 33.423L8.62421 46.3594C13.655 38.8131 22.998 23.7925 22.998 24.08Z" fill="white"/>
  <circle cx="22.6387" cy="39.5315" r="3.2341" transform="rotate(180 22.6387 39.5315)" fill="white"/>
</svg>
