<svg width="16" height="16" viewBox="0 0 16 16" fill="none" xmlns="http://www.w3.org/2000/svg">
<g clip-path="url(#clip0_3781_60312)">
<path d="M7.99992 1.33301C4.31992 1.33301 1.33325 4.31967 1.33325 7.99967C1.33325 11.6797 4.31992 14.6663 7.99992 14.6663H11.3333V13.333H7.99992C5.10659 13.333 2.66659 10.893 2.66659 7.99967C2.66659 5.10634 5.10659 2.66634 7.99992 2.66634C10.8933 2.66634 13.3333 5.10634 13.3333 7.99967V8.95301C13.3333 9.47967 12.8599 9.99967 12.3333 9.99967C11.8066 9.99967 11.3333 9.47967 11.3333 8.95301V7.99967C11.3333 6.15967 9.83992 4.66634 7.99992 4.66634C6.15992 4.66634 4.66658 6.15967 4.66658 7.99967C4.66658 9.83967 6.15992 11.333 7.99992 11.333C8.91992 11.333 9.75992 10.9597 10.3599 10.353C10.7933 10.9463 11.5399 11.333 12.3333 11.333C13.6466 11.333 14.6666 10.2663 14.6666 8.95301V7.99967C14.6666 4.31967 11.6799 1.33301 7.99992 1.33301ZM7.99992 9.99967C6.89325 9.99967 5.99992 9.10634 5.99992 7.99967C5.99992 6.89301 6.89325 5.99967 7.99992 5.99967C9.10659 5.99967 9.99992 6.89301 9.99992 7.99967C9.99992 9.10634 9.10659 9.99967 7.99992 9.99967Z" fill="#0D9488"/>
</g>
<defs>
<clipPath id="clip0_3781_60312">
<rect width="16" height="16" fill="white"/>
</clipPath>
</defs>
</svg>
