<svg width="26" height="26" viewBox="0 0 26 26" fill="none" xmlns="http://www.w3.org/2000/svg">
<path d="M15.1667 22.7503H10.8333M19.5 8.66699C19.5 6.94309 18.8152 5.28978 17.5962 4.0708C16.3772 2.85181 14.7239 2.16699 13 2.16699C11.2761 2.16699 9.62279 2.85181 8.40381 4.0708C7.18482 5.28978 6.5 6.94309 6.5 8.66699C6.5 12.0147 5.65551 14.3068 4.71214 15.8229C3.91639 17.1017 3.51851 17.7411 3.5331 17.9195C3.54926 18.117 3.5911 18.1923 3.75026 18.3104C3.894 18.417 4.54197 18.417 5.83793 18.417H20.1621C21.458 18.417 22.106 18.417 22.2497 18.3104C22.4089 18.1923 22.4507 18.117 22.4669 17.9195C22.4815 17.7411 22.0836 17.1017 21.2879 15.8229C20.3445 14.3068 19.5 12.0147 19.5 8.66699Z" stroke="#94A3B8" stroke-width="2" stroke-linecap="round" stroke-linejoin="round"/>
</svg>
