<svg width="32" height="32" viewBox="0 0 32 32" fill="none" xmlns="http://www.w3.org/2000/svg">
<path d="M28 16H27C27 22.0751 22.0751 27 16 27V28V29C23.1797 29 29 23.1797 29 16H28ZM16 28V27C9.92487 27 5 22.0751 5 16H4H3C3 23.1797 8.8203 29 16 29V28ZM4 16H5C5 9.92487 9.92487 5 16 5V4V3C8.8203 3 3 8.8203 3 16H4ZM16 4V5C22.0751 5 27 9.92487 27 16H28H29C29 8.8203 23.1797 3 16 3V4ZM21.3333 16H20.3333C20.3333 18.3932 18.3932 20.3333 16 20.3333V21.3333V22.3333C19.4978 22.3333 22.3333 19.4978 22.3333 16H21.3333ZM16 21.3333V20.3333C13.6068 20.3333 11.6667 18.3932 11.6667 16H10.6667H9.66667C9.66667 19.4978 12.5022 22.3333 16 22.3333V21.3333ZM10.6667 16H11.6667C11.6667 13.6068 13.6068 11.6667 16 11.6667V10.6667V9.66667C12.5022 9.66667 9.66667 12.5022 9.66667 16H10.6667ZM16 10.6667V11.6667C18.3932 11.6667 20.3333 13.6068 20.3333 16H21.3333H22.3333C22.3333 12.5022 19.4978 9.66667 16 9.66667V10.6667ZM24.4853 7.51472L23.7782 6.80761L19.0641 11.5217L19.7712 12.2288L20.4783 12.9359L25.1924 8.22183L24.4853 7.51472ZM19.7712 19.7712L19.0641 20.4783L23.7782 25.1924L24.4853 24.4853L25.1924 23.7782L20.4783 19.0641L19.7712 19.7712ZM12.2288 12.2288L12.9359 11.5217L8.22183 6.80761L7.51472 7.51472L6.80761 8.22183L11.5217 12.9359L12.2288 12.2288ZM12.2288 19.7712L11.5217 19.0641L6.80761 23.7782L7.51472 24.4853L8.22183 25.1924L12.9359 20.4783L12.2288 19.7712Z" fill="white"/>
</svg>
