<svg width="14" height="17" viewBox="0 0 14 17" fill="none" xmlns="http://www.w3.org/2000/svg">
<path d="M4.61366 9.38634C4.32077 9.09344 3.8459 9.09344 3.553 9.38634C3.26011 9.67923 3.26011 10.1541 3.553 10.447L4.08333 9.91667L4.61366 9.38634ZM5.75 11.5833L5.21967 12.1137C5.51256 12.4066 5.98744 12.4066 6.28033 12.1137L5.75 11.5833ZM9.61366 8.78033C9.90656 8.48744 9.90656 8.01256 9.61366 7.71967C9.32077 7.42678 8.8459 7.42678 8.553 7.71967L9.08333 8.25L9.61366 8.78033ZM12.4167 4.08333H11.6667V14.0833H12.4167H13.1667V4.08333H12.4167ZM10.75 15.75V15H2.41667V15.75V16.5H10.75V15.75ZM0.75 14.0833H1.5V4.08333H0.75H0V14.0833H0.75ZM2.41667 2.41667V3.16667H4.08333V2.41667V1.66667H2.41667V2.41667ZM9.08333 2.41667V3.16667H10.75V2.41667V1.66667H9.08333V2.41667ZM2.41667 15.75V15C1.91041 15 1.5 14.5896 1.5 14.0833H0.75H0C0 15.418 1.08198 16.5 2.41667 16.5V15.75ZM12.4167 14.0833H11.6667C11.6667 14.5896 11.2563 15 10.75 15V15.75V16.5C12.0847 16.5 13.1667 15.418 13.1667 14.0833H12.4167ZM12.4167 4.08333H13.1667C13.1667 2.74865 12.0847 1.66667 10.75 1.66667V2.41667V3.16667C11.2563 3.16667 11.6667 3.57707 11.6667 4.08333H12.4167ZM0.75 4.08333H1.5C1.5 3.57707 1.91041 3.16667 2.41667 3.16667V2.41667V1.66667C1.08198 1.66667 0 2.74865 0 4.08333H0.75ZM4.08333 9.91667L3.553 10.447L5.21967 12.1137L5.75 11.5833L6.28033 11.053L4.61366 9.38634L4.08333 9.91667ZM5.75 11.5833L6.28033 12.1137L9.61366 8.78033L9.08333 8.25L8.553 7.71967L5.21967 11.053L5.75 11.5833ZM5.75 0.75V1.5H7.41667V0.75V0H5.75V0.75ZM7.41667 4.08333V3.33333H5.75V4.08333V4.83333H7.41667V4.08333ZM5.75 4.08333V3.33333C5.24374 3.33333 4.83333 2.92293 4.83333 2.41667H4.08333H3.33333C3.33333 3.75135 4.41531 4.83333 5.75 4.83333V4.08333ZM9.08333 2.41667H8.33333C8.33333 2.92293 7.92293 3.33333 7.41667 3.33333V4.08333V4.83333C8.75136 4.83333 9.83333 3.75135 9.83333 2.41667H9.08333ZM7.41667 0.75V1.5C7.92293 1.5 8.33333 1.91041 8.33333 2.41667H9.08333H9.83333C9.83333 1.08198 8.75136 0 7.41667 0V0.75ZM5.75 0.75V0C4.41531 0 3.33333 1.08198 3.33333 2.41667H4.08333H4.83333C4.83333 1.91041 5.24374 1.5 5.75 1.5V0.75Z" fill="white"/>
</svg>
