<svg width="16" height="16" viewBox="0 0 16 16" fill="none" xmlns="http://www.w3.org/2000/svg">
<path d="M7.99959 7.68927C7.99959 7.59006 4.74986 2.52175 3.125 0L7.99959 4.46474L12.9992 0C11.2493 2.60443 7.99959 7.78849 7.99959 7.68927Z" fill="white"/>
<ellipse cx="8.12491" cy="2.35642" rx="1.12491" ry="1.11619" fill="white"/>
<path d="M7.74935 7.93761C7.64936 7.93761 2.54145 11.1621 0 12.7744L4.49962 7.93761L-4.31614e-07 2.97679C2.62478 4.71308 7.84934 7.93761 7.74935 7.93761Z" fill="#00FFDF"/>
<ellipse cx="2.37491" cy="7.8135" rx="1.11619" ry="1.12491" transform="rotate(-90 2.37491 7.8135)" fill="#00FFDF"/>
<path d="M8.25065 7.81336C8.35064 7.81336 13.4585 4.58883 16 2.97656L11.5004 7.81336L16 12.7742C13.3752 11.0379 8.15066 7.81336 8.25065 7.81336Z" fill="#00FFDF"/>
<ellipse cx="13.6251" cy="7.93747" rx="1.11619" ry="1.12491" transform="rotate(90 13.6251 7.93747)" fill="#00FFDF"/>
<path d="M7.99846 8.31073C7.99846 8.40994 11.2482 13.4782 12.873 16L7.99846 11.5353L2.99888 16C4.74873 13.3956 7.99846 8.21151 7.99846 8.31073Z" fill="white"/>
<ellipse cx="7.87314" cy="13.6436" rx="1.12491" ry="1.11619" transform="rotate(180 7.87314 13.6436)" fill="white"/>
</svg>
