<svg width="32" height="32" viewBox="0 0 32 32" fill="none" xmlns="http://www.w3.org/2000/svg">
<path d="M21.6627 25.3024L20.8947 19.1536C20.7859 18.2827 20.3626 17.4815 19.7045 16.9007C19.0464 16.32 18.1988 15.9997 17.3211 16H14.6763C13.799 16.0002 12.952 16.3208 12.2944 16.9015C11.6368 17.4822 11.2139 18.2831 11.1051 19.1536L10.3359 25.3024C10.2937 25.6402 10.3238 25.9831 10.4243 26.3084C10.5248 26.6337 10.6934 26.9339 10.9188 27.189C11.1442 27.4441 11.4213 27.6484 11.7317 27.7882C12.0421 27.9281 12.3787 28.0002 12.7191 28H19.2807C19.621 28.0001 19.9575 27.9278 20.2678 27.7879C20.578 27.648 20.855 27.4437 21.0803 27.1886C21.3055 26.9334 21.474 26.6333 21.5744 26.3081C21.6748 25.9829 21.7049 25.6401 21.6627 25.3024Z" stroke="#2DD4BF" stroke-width="2" stroke-linecap="round" stroke-linejoin="round"/>
<path d="M15.9999 11.2C17.9881 11.2 19.5999 9.58822 19.5999 7.6C19.5999 5.61177 17.9881 4 15.9999 4C14.0117 4 12.3999 5.61177 12.3999 7.6C12.3999 9.58822 14.0117 11.2 15.9999 11.2Z" stroke="#2DD4BF" stroke-width="2"/>
<path d="M6.4 14.8C7.72548 14.8 8.8 13.7255 8.8 12.4C8.8 11.0745 7.72548 10 6.4 10C5.07452 10 4 11.0745 4 12.4C4 13.7255 5.07452 14.8 6.4 14.8Z" stroke="#2DD4BF" stroke-width="2"/>
<path d="M25.6 14.8C26.9254 14.8 28 13.7255 28 12.4C28 11.0745 26.9254 10 25.6 10C24.2745 10 23.2 11.0745 23.2 12.4C23.2 13.7255 24.2745 14.8 25.6 14.8Z" stroke="#2DD4BF" stroke-width="2"/>
<path d="M6.40001 18.4004H6.03281C5.46468 18.4003 4.91495 18.6018 4.48142 18.969C4.04788 19.3361 3.75866 19.8452 3.66521 20.4056L3.26561 22.8056C3.20826 23.1494 3.22651 23.5017 3.31909 23.8378C3.41167 24.1738 3.57635 24.4857 3.80168 24.7517C4.02701 25.0177 4.30758 25.2314 4.62388 25.378C4.94017 25.5245 5.2846 25.6004 5.63321 25.6004H10M25.6 18.4004H25.9672C26.5353 18.4003 27.0851 18.6018 27.5186 18.969C27.9521 19.3361 28.2413 19.8452 28.3348 20.4056L28.7344 22.8056C28.7917 23.1494 28.7735 23.5017 28.6809 23.8378C28.5883 24.1738 28.4237 24.4857 28.1983 24.7517C27.973 25.0177 27.6924 25.2314 27.3761 25.378C27.0598 25.5245 26.7154 25.6004 26.3668 25.6004H22" stroke="#2DD4BF" stroke-width="2" stroke-linecap="round" stroke-linejoin="round"/>
</svg>
