<svg width="30" height="30" viewBox="0 0 30 30" fill="none" xmlns="http://www.w3.org/2000/svg">
<rect width="30" height="30" rx="15" fill="#0D9488"/>
<path d="M14.9996 14.6893C14.9996 14.5901 11.7499 9.52175 10.125 7L14.9996 11.4647L19.9992 7C18.2493 9.60443 14.9996 14.7885 14.9996 14.6893Z" fill="white"/>
<ellipse cx="15.1244" cy="9.35642" rx="1.12491" ry="1.11619" fill="white"/>
<path d="M14.7493 14.9376C14.6494 14.9376 9.54145 18.1621 7 19.7744L11.4996 14.9376L7 9.97679C9.62478 11.7131 14.8493 14.9376 14.7493 14.9376Z" fill="#00FFDF"/>
<ellipse cx="9.37491" cy="14.8135" rx="1.11619" ry="1.12491" transform="rotate(-90 9.37491 14.8135)" fill="#00FFDF"/>
<path d="M15.2507 14.8134C15.3506 14.8134 20.4585 11.5888 23 9.97656L18.5004 14.8134L23 19.7742C20.3752 18.0379 15.1507 14.8134 15.2507 14.8134Z" fill="#00FFDF"/>
<ellipse cx="20.6251" cy="14.9375" rx="1.11619" ry="1.12491" transform="rotate(90 20.6251 14.9375)" fill="#00FFDF"/>
<path d="M14.9994 15.3107C14.9994 15.4099 18.2492 20.4782 19.874 23L14.9994 18.5353L9.99986 23C11.7497 20.3956 14.9994 15.2115 14.9994 15.3107Z" fill="white"/>
<ellipse cx="14.8746" cy="20.6436" rx="1.12491" ry="1.11619" transform="rotate(180 14.8746 20.6436)" fill="white"/>
</svg>
