<svg width="20" height="20" viewBox="0 0 20 20" fill="none" xmlns="http://www.w3.org/2000/svg">
<g clip-path="url(#clip0_3781_63815)">
<g clip-path="url(#clip1_3781_63815)">
<path d="M9.60622 10.3894C9.0205 9.82226 8.44765 9.29654 7.95193 8.85511C7.0405 8.04226 5.70907 7.9594 4.67336 8.60369L0.943359 10.9251M15.3905 13.7037V13.4851M19.0219 13.6308C19.0219 16.4637 15.7434 18.9151 15.3905 18.9151C15.0376 18.9151 11.7591 16.4637 11.7591 13.6308C11.7591 12.6677 12.1417 11.744 12.8227 11.063C13.5037 10.382 14.4274 9.9994 15.3905 9.9994C16.3536 9.9994 17.2773 10.382 17.9583 11.063C18.6393 11.744 19.0219 12.6677 19.0219 13.6308Z" stroke="#94A3B8" stroke-width="1.5" stroke-linecap="round" stroke-linejoin="round"/>
<path d="M8.52257 15.0513C8.30828 15.0579 8.094 15.0613 7.87971 15.0613C6.59971 15.0613 5.34542 14.9441 4.12257 14.8084C3.31926 14.7156 2.57107 14.3534 2.00005 13.7808C1.42903 13.2083 1.06886 12.4591 0.978281 11.6555C0.848281 10.4413 0.738281 9.19268 0.738281 7.92125C0.738281 6.64982 0.848281 5.40268 0.978281 4.18554C1.06916 3.38223 1.42946 2.6334 2.00046 2.0611C2.57146 1.48881 3.31947 1.12681 4.12257 1.03411C5.34542 0.899821 6.59971 0.78125 7.87971 0.78125C9.15971 0.78125 10.4126 0.898393 11.634 1.03411C12.4373 1.12687 13.1855 1.48908 13.7565 2.06166C14.3275 2.63424 14.6877 3.3834 14.7783 4.18696C14.8697 5.03839 14.9497 5.90411 14.9926 6.78411" stroke="#94A3B8" stroke-width="1.5" stroke-linecap="round" stroke-linejoin="round"/>
<path d="M10.5574 7.12406C11.586 7.12406 12.1631 6.54692 12.1631 5.51978C12.1631 4.49121 11.586 3.91406 10.5574 3.91406C9.52884 3.91406 8.95312 4.49121 8.95312 5.51978C8.95312 6.54692 9.53027 7.12406 10.5574 7.12406Z" stroke="#94A3B8" stroke-width="1.5" stroke-linecap="round" stroke-linejoin="round"/>
</g>
</g>
<defs>
<clipPath id="clip0_3781_63815">
<rect width="20" height="20" fill="white"/>
</clipPath>
<clipPath id="clip1_3781_63815">
<rect width="20" height="20" fill="white"/>
</clipPath>
</defs>
</svg>
