<svg width="32" height="32" viewBox="0 0 32 32" fill="none" xmlns="http://www.w3.org/2000/svg">
<path d="M20.6668 10.7198C20.6122 9.17318 20.4295 8.20651 19.8188 7.44918C18.9482 6.36651 17.4588 6.02785 14.4802 5.34785L13.1468 5.04385C8.62016 4.01185 6.3575 3.49585 4.8455 4.68385C3.3335 5.87318 3.3335 8.16785 3.3335 12.7572V19.2425C3.3335 23.8318 3.3335 26.1278 4.8455 27.3158C6.3575 28.5038 8.61883 27.9878 13.1455 26.9558L14.4815 26.6518C17.4588 25.9718 18.9482 25.6332 19.8188 24.5505C20.4295 23.7945 20.6122 22.8265 20.6668 21.2798M24.6668 12.0158C24.6668 12.0158 28.6668 14.9625 28.6668 16.0158C28.6668 17.0692 24.6668 20.0158 24.6668 20.0158M28.0002 16.0158H11.3335" stroke="white" stroke-width="2" stroke-linecap="round" stroke-linejoin="round"/>
</svg>
