<svg width="18" height="18" viewBox="0 0 18 18" fill="none" xmlns="http://www.w3.org/2000/svg">
<path d="M5.37178 6.75C6.65768 6.75 7.70011 5.74264 7.70011 4.5C7.70011 3.25736 6.65768 2.25 5.37178 2.25C4.08588 2.25 3.04346 3.25736 3.04346 4.5C3.04346 5.74264 4.08588 6.75 5.37178 6.75Z" stroke="#2DD4BF" stroke-width="1.5"/>
<path d="M7.70018 9.75H4.4545C3.89927 9.75001 3.36233 9.94176 2.94052 10.2907C2.51871 10.6396 2.2398 11.1226 2.15411 11.6527L1.77071 14.0175C1.73595 14.2316 1.74961 14.4504 1.81075 14.6589C1.87189 14.8675 1.97906 15.0607 2.12488 15.2253C2.2707 15.39 2.45171 15.5221 2.65545 15.6127C2.85919 15.7033 3.08082 15.7501 3.30508 15.75H6.92408M16.7341 14.0182L16.3507 11.6527C16.265 11.1226 15.9861 10.6396 15.5643 10.2907C15.1425 9.94176 14.6055 9.75001 14.0503 9.75H12.2156C11.6604 9.75001 11.1234 9.94176 10.7016 10.2907C10.2798 10.6396 10.0009 11.1226 9.9152 11.6527L9.53258 14.0182C9.49795 14.2322 9.51169 14.4509 9.57284 14.6593C9.63399 14.8676 9.74111 15.0607 9.88683 15.2253C10.0326 15.3898 10.2134 15.5219 10.417 15.6125C10.6206 15.7031 10.842 15.75 11.0662 15.75H15.1997C15.4238 15.75 15.6453 15.7031 15.8489 15.6125C16.0525 15.5219 16.2333 15.3898 16.3791 15.2253C16.5248 15.0607 16.6319 14.8676 16.6931 14.6593C16.7542 14.4509 16.7687 14.2322 16.7341 14.0182Z" stroke="#2DD4BF" stroke-width="1.5" stroke-linecap="round" stroke-linejoin="round"/>
<path d="M13.133 6.75C14.4189 6.75 15.4613 5.74264 15.4613 4.5C15.4613 3.25736 14.4189 2.25 13.133 2.25C11.8471 2.25 10.8047 3.25736 10.8047 4.5C10.8047 5.74264 11.8471 6.75 13.133 6.75Z" stroke="#2DD4BF" stroke-width="1.5"/>
</svg>
