<svg width="32" height="32" viewBox="0 0 32 32" fill="none" xmlns="http://www.w3.org/2000/svg">
<path d="M20.1998 15.9998C20.1998 16.5514 20.0912 17.0975 19.8801 17.6071C19.669 18.1166 19.3597 18.5796 18.9697 18.9697C18.5796 19.3597 18.1166 19.669 17.6071 19.8801C17.0975 20.0912 16.5514 20.1998 15.9998 20.1998C15.4483 20.1998 14.9021 20.0912 14.3925 19.8801C13.883 19.669 13.42 19.3597 13.03 18.9697C12.64 18.5796 12.3306 18.1166 12.1195 17.6071C11.9084 17.0975 11.7998 16.5514 11.7998 15.9998C11.7998 14.8859 12.2423 13.8176 13.03 13.03C13.8176 12.2423 14.8859 11.7998 15.9998 11.7998C17.1137 11.7998 18.182 12.2423 18.9697 13.03C19.7573 13.8176 20.1998 14.8859 20.1998 15.9998Z" stroke="white" stroke-width="2"/>
<path d="M26.548 12.5826C27.5176 14.2506 28 15.0846 28 16.0002C28 16.9158 27.5164 17.7498 26.548 19.4178L24.2404 23.397C23.2768 25.0578 22.7944 25.8882 22.0024 26.3442C21.2104 26.8002 20.248 26.8002 18.3244 26.8002H13.6756C11.752 26.8002 10.7896 26.8002 9.9976 26.3442C9.2056 25.8882 8.7232 25.0578 7.7596 23.397L5.452 19.4178C4.4836 17.7498 4 16.9158 4 16.0002C4 15.0846 4.4836 14.2506 5.452 12.5826L7.7596 8.6034C8.7232 6.9426 9.2056 6.1122 9.9976 5.6562C10.7896 5.2002 11.752 5.2002 13.6756 5.2002H18.3244C20.248 5.2002 21.2104 5.2002 22.0024 5.6562C22.7944 6.1122 23.2768 6.9426 24.2404 8.6034L26.548 12.5826Z" stroke="white" stroke-width="2"/>
</svg>
