<svg width="32" height="32" viewBox="0 0 32 32" fill="none" xmlns="http://www.w3.org/2000/svg">
<path d="M4 16C4 10.3432 4 7.5148 5.7568 5.7568C7.516 4 10.3432 4 16 4C21.6568 4 24.4852 4 26.242 5.7568C28 7.516 28 10.3432 28 16C28 21.6568 28 24.4852 26.242 26.242C24.4864 28 21.6568 28 16 28C10.3432 28 7.5148 28 5.7568 26.242C4 24.4864 4 21.6568 4 16Z" stroke="white" stroke-width="2"/>
<path d="M4 17.2002H7.792C8.878 17.2002 9.4216 17.2002 9.8992 17.4198C10.3768 17.6394 10.7296 18.0522 11.4364 18.8766L12.1636 19.7238C12.8704 20.5482 13.2232 20.961 13.7008 21.1806C14.1784 21.4002 14.7208 21.4002 15.808 21.4002H16.192C17.278 21.4002 17.8216 21.4002 18.2992 21.1806C18.7768 20.961 19.1296 20.5482 19.8364 19.7238L20.5636 18.8766C21.2704 18.0522 21.6232 17.6394 22.1008 17.4198C22.5784 17.2002 23.1208 17.2002 24.208 17.2002H28" stroke="white" stroke-width="2" stroke-linecap="round"/>
</svg>
