<svg width="32" height="32" viewBox="0 0 32 32" fill="none" xmlns="http://www.w3.org/2000/svg">
<mask id="path-1-inside-1_5014_208" fill="white">
<path d="M18.3747 27.9999H13.4989C13.3314 27.9999 13.1708 27.9334 13.0524 27.815C12.9339 27.6965 12.8674 27.5359 12.8674 27.3684V25.0652C12.384 24.9079 11.9135 24.7138 11.4598 24.4846L9.83116 26.1136C9.77248 26.1723 9.70281 26.2188 9.62614 26.2505C9.54948 26.2823 9.46731 26.2986 9.38433 26.2986C9.30136 26.2985 9.21921 26.2821 9.14257 26.2503C9.06593 26.2185 8.99631 26.1719 8.93768 26.1132L5.49053 22.6614C5.37231 22.5427 5.30601 22.382 5.30617 22.2145C5.30633 22.047 5.37293 21.8864 5.49137 21.7679L7.11916 20.1439C6.89023 19.6903 6.69626 19.2199 6.53895 18.7368H4.63158C4.46407 18.7368 4.30343 18.6703 4.18499 18.5518C4.06654 18.4334 4 18.2727 4 18.1052C4 17.9377 4.06654 17.7771 4.18499 17.6586C4.30343 17.5402 4.46407 17.4736 4.63158 17.4736H7.00968C7.296 17.4736 7.54568 17.6652 7.61979 17.941C7.81017 18.6426 8.08815 19.3173 8.44716 19.9494C8.51512 20.0697 8.54174 20.209 8.52296 20.3459C8.50417 20.4828 8.44101 20.6098 8.34316 20.7073L6.83116 22.2159L9.38484 24.7734L10.8977 23.2606C10.9952 23.1628 11.1221 23.0997 11.259 23.0811C11.3959 23.0624 11.535 23.0893 11.6552 23.1574C12.2873 23.5161 12.9621 23.794 13.6636 23.9844C13.7977 24.0205 13.9163 24.0999 14.0007 24.2102C14.0852 24.3205 14.131 24.4555 14.1309 24.5945V26.7368H17.7432V24.5945C17.7431 24.4555 17.7889 24.3205 17.8734 24.2102C17.9579 24.0999 18.0764 24.0205 18.2105 23.9844C18.9118 23.7941 19.5865 23.5164 20.2185 23.1578C20.3388 23.0897 20.478 23.0629 20.615 23.0816C20.7519 23.1003 20.8789 23.1635 20.9764 23.2614L22.4846 24.7734L25.0425 22.2164L23.5301 20.7077C23.4323 20.6101 23.3692 20.4831 23.3505 20.3463C23.3318 20.2094 23.3585 20.0701 23.4265 19.9498C23.7855 19.3178 24.0635 18.643 24.2539 17.9414C24.3276 17.6656 24.5777 17.4741 24.8636 17.4741H27.3684C27.5359 17.4741 27.6966 17.5406 27.815 17.659C27.9335 17.7775 28 17.9381 28 18.1056C28 18.2731 27.9335 18.4338 27.815 18.5522C27.6966 18.6707 27.5359 18.7372 27.3684 18.7372H25.3347C25.1773 19.2204 24.9832 19.6908 24.7541 20.1444L26.3823 21.7684C26.5008 21.8869 26.5674 22.0476 26.5675 22.2152C26.5676 22.3828 26.5011 22.5436 26.3827 22.6623L22.9309 26.1141C22.8125 26.2324 22.652 26.2989 22.4846 26.2989H22.4838C22.3163 26.2987 22.1558 26.2321 22.0375 26.1136L20.4131 24.4854C19.9597 24.7145 19.4894 24.9085 19.0063 25.0656V27.3684C19.0063 27.5359 18.9398 27.6965 18.8213 27.815C18.7029 27.9334 18.5422 27.9999 18.3747 27.9999Z"/>
</mask>
<path d="M18.3747 27.9999H13.4989C13.3314 27.9999 13.1708 27.9334 13.0524 27.815C12.9339 27.6965 12.8674 27.5359 12.8674 27.3684V25.0652C12.384 24.9079 11.9135 24.7138 11.4598 24.4846L9.83116 26.1136C9.77248 26.1723 9.70281 26.2188 9.62614 26.2505C9.54948 26.2823 9.46731 26.2986 9.38433 26.2986C9.30136 26.2985 9.21921 26.2821 9.14257 26.2503C9.06593 26.2185 8.99631 26.1719 8.93768 26.1132L5.49053 22.6614C5.37231 22.5427 5.30601 22.382 5.30617 22.2145C5.30633 22.047 5.37293 21.8864 5.49137 21.7679L7.11916 20.1439C6.89023 19.6903 6.69626 19.2199 6.53895 18.7368H4.63158C4.46407 18.7368 4.30343 18.6703 4.18499 18.5518C4.06654 18.4334 4 18.2727 4 18.1052C4 17.9377 4.06654 17.7771 4.18499 17.6586C4.30343 17.5402 4.46407 17.4736 4.63158 17.4736H7.00968C7.296 17.4736 7.54568 17.6652 7.61979 17.941C7.81017 18.6426 8.08815 19.3173 8.44716 19.9494C8.51512 20.0697 8.54174 20.209 8.52296 20.3459C8.50417 20.4828 8.44101 20.6098 8.34316 20.7073L6.83116 22.2159L9.38484 24.7734L10.8977 23.2606C10.9952 23.1628 11.1221 23.0997 11.259 23.0811C11.3959 23.0624 11.535 23.0893 11.6552 23.1574C12.2873 23.5161 12.9621 23.794 13.6636 23.9844C13.7977 24.0205 13.9163 24.0999 14.0007 24.2102C14.0852 24.3205 14.131 24.4555 14.1309 24.5945V26.7368H17.7432V24.5945C17.7431 24.4555 17.7889 24.3205 17.8734 24.2102C17.9579 24.0999 18.0764 24.0205 18.2105 23.9844C18.9118 23.7941 19.5865 23.5164 20.2185 23.1578C20.3388 23.0897 20.478 23.0629 20.615 23.0816C20.7519 23.1003 20.8789 23.1635 20.9764 23.2614L22.4846 24.7734L25.0425 22.2164L23.5301 20.7077C23.4323 20.6101 23.3692 20.4831 23.3505 20.3463C23.3318 20.2094 23.3585 20.0701 23.4265 19.9498C23.7855 19.3178 24.0635 18.643 24.2539 17.9414C24.3276 17.6656 24.5777 17.4741 24.8636 17.4741H27.3684C27.5359 17.4741 27.6966 17.5406 27.815 17.659C27.9335 17.7775 28 17.9381 28 18.1056C28 18.2731 27.9335 18.4338 27.815 18.5522C27.6966 18.6707 27.5359 18.7372 27.3684 18.7372H25.3347C25.1773 19.2204 24.9832 19.6908 24.7541 20.1444L26.3823 21.7684C26.5008 21.8869 26.5674 22.0476 26.5675 22.2152C26.5676 22.3828 26.5011 22.5436 26.3827 22.6623L22.9309 26.1141C22.8125 26.2324 22.652 26.2989 22.4846 26.2989H22.4838C22.3163 26.2987 22.1558 26.2321 22.0375 26.1136L20.4131 24.4854C19.9597 24.7145 19.4894 24.9085 19.0063 25.0656V27.3684C19.0063 27.5359 18.9398 27.6965 18.8213 27.815C18.7029 27.9334 18.5422 27.9999 18.3747 27.9999Z" fill="white"/>
<path d="M13.4989 27.9999V35.9999V27.9999ZM12.8674 25.0652H20.8674V19.2555L15.3428 17.4578L12.8674 25.0652ZM11.4598 24.4846L15.0678 17.3444L9.89768 14.7319L5.8022 18.8285L11.4598 24.4846ZM9.83116 26.1136L15.4872 31.7713L15.4887 31.7698L9.83116 26.1136ZM8.93768 26.1132L14.599 20.4608L14.5983 20.4602L8.93768 26.1132ZM5.49053 22.6614L-0.17737 28.3072L-0.170125 28.3145L5.49053 22.6614ZM5.49137 21.7679L-0.158895 16.1045L-0.165872 16.1115L5.49137 21.7679ZM7.11916 20.1439L12.7694 25.8074L16.8726 21.7138L14.2611 16.5395L7.11916 20.1439ZM6.53895 18.7368L14.1459 16.2599L12.3475 10.7368H6.53895V18.7368ZM7.61979 17.941L-0.106161 20.017L-0.103581 20.0266L-0.100978 20.0362L7.61979 17.941ZM8.44716 19.9494L15.4127 16.0149L15.4081 16.0066L15.4034 15.9984L8.44716 19.9494ZM8.34316 20.7073L2.69491 15.0419L2.69261 15.0442L8.34316 20.7073ZM6.83116 22.2159L1.18061 16.5528L-4.48466 22.2054L1.17011 27.8686L6.83116 22.2159ZM9.38484 24.7734L3.72379 30.4261L9.38065 36.0913L15.0417 30.4303L9.38484 24.7734ZM10.8977 23.2606L16.5545 28.9174L16.563 28.9089L10.8977 23.2606ZM11.6552 23.1574L7.7066 30.1151L7.70707 30.1153L11.6552 23.1574ZM13.6636 23.9844L11.5679 31.705L11.5757 31.7071L11.5836 31.7092L13.6636 23.9844ZM14.1309 24.5945L6.13095 24.5913V24.5945H14.1309ZM14.1309 26.7368H6.13095V34.7368H14.1309V26.7368ZM17.7432 26.7368V34.7368H25.7432V26.7368H17.7432ZM17.7432 24.5945H25.7432L25.7432 24.5913L17.7432 24.5945ZM18.2105 23.9844L20.2905 31.7092L20.298 31.7072L20.3055 31.7052L18.2105 23.9844ZM20.2185 23.1578L16.2735 16.1982L16.2713 16.1995L20.2185 23.1578ZM20.9764 23.2614L15.3086 28.9073L15.3125 28.9112L20.9764 23.2614ZM22.4846 24.7734L16.8207 30.4232L22.4766 36.0933L28.1406 30.4312L22.4846 24.7734ZM25.0425 22.2164L30.6985 27.8742L36.3643 22.2102L30.6923 16.5524L25.0425 22.2164ZM23.5301 20.7077L17.8784 26.3698L17.8804 26.3717L23.5301 20.7077ZM23.4265 19.9498L16.4703 15.9988L16.4666 16.0053L16.4629 16.0119L23.4265 19.9498ZM24.2539 17.9414L31.9747 20.0365L31.9788 20.0215L31.9828 20.0064L24.2539 17.9414ZM25.3347 18.7372V10.7372H19.5277L17.7284 16.2585L25.3347 18.7372ZM24.7541 20.1444L17.6131 16.538L14.9992 21.7138L19.1046 25.8085L24.7541 20.1444ZM26.3823 21.7684L32.0396 16.1119L32.0318 16.1042L26.3823 21.7684ZM26.3827 22.6623L32.0396 28.3191L32.0453 28.3134L26.3827 22.6623ZM22.9309 26.1141L28.586 31.7727L28.5878 31.7709L22.9309 26.1141ZM22.4846 26.2989V34.2989H22.4863L22.4846 26.2989ZM22.4838 26.2989L22.4767 34.2989H22.4838V26.2989ZM22.0375 26.1136L16.374 31.7639L16.3771 31.767L22.0375 26.1136ZM20.4131 24.4854L26.0765 18.8352L21.9808 14.7299L16.8051 17.3452L20.4131 24.4854ZM19.0063 25.0656L16.5315 17.458L11.0063 19.2554V25.0656H19.0063ZM19.0063 27.3684H27.0063H19.0063ZM18.3747 27.9999V19.9999H13.4989V27.9999V35.9999H18.3747V27.9999ZM13.4989 27.9999V19.9999C15.4532 19.9999 17.3274 20.7763 18.7092 22.1581L13.0524 27.815L7.3955 33.4718C9.01424 35.0906 11.2097 35.9999 13.4989 35.9999V27.9999ZM13.0524 27.815L18.7092 22.1581C20.0911 23.54 20.8674 25.4141 20.8674 27.3684H12.8674H4.86737C4.86737 29.6576 5.77677 31.8531 7.3955 33.4718L13.0524 27.815ZM12.8674 27.3684H20.8674V25.0652H12.8674H4.86737V27.3684H12.8674ZM12.8674 25.0652L15.3428 17.4578C15.2484 17.4271 15.1564 17.3892 15.0678 17.3444L11.4598 24.4846L7.85182 31.6248C8.6705 32.0385 9.51968 32.3888 10.3919 32.6726L12.8674 25.0652ZM11.4598 24.4846L5.8022 18.8285L4.17357 20.4575L9.83116 26.1136L15.4887 31.7698L17.1174 30.1407L11.4598 24.4846ZM9.83116 26.1136L4.17516 20.4559C4.85981 19.7715 5.67257 19.2287 6.56698 18.8586L9.62614 26.2505L12.6853 33.6425C13.7331 33.2089 14.6851 32.5731 15.4872 31.7713L9.83116 26.1136ZM9.62614 26.2505L6.56698 18.8586C7.46143 18.4884 8.42007 18.2981 9.3881 18.2986L9.38433 26.2986L9.38056 34.2985C10.5145 34.2991 11.6375 34.0762 12.6853 33.6425L9.62614 26.2505ZM9.38433 26.2986L9.3881 18.2986C10.3562 18.299 11.3146 18.4902 12.2087 18.8612L9.14257 26.2503L6.07643 33.6394C7.1238 34.074 8.24657 34.298 9.38056 34.2985L9.38433 26.2986ZM9.14257 26.2503L12.2087 18.8612C13.1028 19.2322 13.915 19.7758 14.599 20.4608L8.93768 26.1132L3.27635 31.7656C4.0776 32.5681 5.02909 33.2048 6.07643 33.6394L9.14257 26.2503ZM8.93768 26.1132L14.5983 20.4602L11.1512 17.0084L5.49053 22.6614L-0.170125 28.3145L3.27703 31.7663L8.93768 26.1132ZM5.49053 22.6614L11.1584 17.0156C12.5356 18.3982 13.308 20.2706 13.3062 22.2221L5.30617 22.2145L-2.69383 22.207C-2.69598 24.4934 -1.79096 26.6873 -0.177365 28.3072L5.49053 22.6614ZM5.30617 22.2145L13.3062 22.2221C13.3043 24.1735 12.5284 26.0445 11.1486 27.4244L5.49137 21.7679L-0.165872 16.1115C-1.78251 17.7283 -2.69167 19.9205 -2.69383 22.207L5.30617 22.2145ZM5.49137 21.7679L11.1416 27.4314L12.7694 25.8074L7.11916 20.1439L1.4689 14.4805L-0.158891 16.1045L5.49137 21.7679ZM7.11916 20.1439L14.2611 16.5395C14.2156 16.4493 14.1771 16.3559 14.1459 16.2599L6.53895 18.7368L-1.06796 21.2137C-0.784583 22.084 -0.435186 22.9313 -0.0228133 23.7484L7.11916 20.1439ZM6.53895 18.7368V10.7368H4.63158V18.7368V26.7368H6.53895V18.7368ZM4.63158 18.7368V10.7368C6.58579 10.7368 8.45998 11.5131 9.84184 12.895L4.18499 18.5518L-1.47187 24.2087C0.146877 25.8274 2.34236 26.7368 4.63158 26.7368V18.7368ZM4.18499 18.5518L9.84184 12.895C11.2237 14.2768 12 16.151 12 18.1052H4H-4C-4 20.3944 -3.09061 22.5899 -1.47187 24.2087L4.18499 18.5518ZM4 18.1052H12C12 20.0594 11.2237 21.9336 9.84184 23.3155L4.18499 17.6586L-1.47187 12.0018C-3.09061 13.6205 -4 15.816 -4 18.1052H4ZM4.18499 17.6586L9.84184 23.3155C8.45998 24.6973 6.58579 25.4736 4.63158 25.4736V17.4736V9.47363C2.34236 9.47363 0.146877 10.383 -1.47187 12.0018L4.18499 17.6586ZM4.63158 17.4736V25.4736H7.00968V17.4736V9.47363H4.63158V17.4736ZM7.00968 17.4736V25.4736C3.68032 25.4736 0.759591 23.239 -0.106161 20.017L7.61979 17.941L15.3457 15.865C14.3318 12.0915 10.9117 9.47363 7.00968 9.47363V17.4736ZM7.61979 17.941L-0.100978 20.0362C0.265318 21.386 0.800155 22.6843 1.49091 23.9004L8.44716 19.9494L15.4034 15.9984C15.3761 15.9504 15.355 15.8991 15.3406 15.8458L7.61979 17.941ZM8.44716 19.9494L1.48158 23.884C0.688724 22.4803 0.378074 20.8554 0.597231 19.2583L8.52296 20.3459L16.4487 21.4335C16.7054 19.5626 16.3415 17.6591 15.4127 16.0149L8.44716 19.9494ZM8.52296 20.3459L0.597231 19.2583C0.816391 17.6612 1.55327 16.18 2.69491 15.0419L8.34316 20.7073L13.9914 26.3728C15.3288 25.0395 16.192 23.3044 16.4487 21.4335L8.52296 20.3459ZM8.34316 20.7073L2.69261 15.0442L1.18061 16.5528L6.83116 22.2159L12.4817 27.8791L13.9937 26.3705L8.34316 20.7073ZM6.83116 22.2159L1.17011 27.8686L3.72379 30.4261L9.38484 24.7734L15.0459 19.1208L12.4922 16.5633L6.83116 22.2159ZM9.38484 24.7734L15.0417 30.4303L16.5545 28.9174L10.8977 23.2606L5.24083 17.6037L3.72799 19.1166L9.38484 24.7734ZM10.8977 23.2606L16.563 28.9089C15.4228 30.0525 13.9386 30.79 12.3385 31.0079L11.259 23.0811L10.1795 15.1542C8.30567 15.4094 6.56756 16.273 5.23235 17.6122L10.8977 23.2606ZM11.259 23.0811L12.3385 31.0079C10.7384 31.2258 9.11105 30.9121 7.7066 30.1151L11.6552 23.1574L15.6037 16.1998C13.959 15.2664 12.0533 14.899 10.1795 15.1542L11.259 23.0811ZM11.6552 23.1574L7.70707 30.1153C8.92233 30.8049 10.2194 31.339 11.5679 31.705L13.6636 23.9844L15.7592 16.2637C15.7048 16.2489 15.6523 16.2274 15.6032 16.1995L11.6552 23.1574ZM13.6636 23.9844L11.5836 31.7092C10.0183 31.2878 8.63574 30.3619 7.64999 29.0751L14.0007 24.2102L20.3515 19.3452C19.1968 17.8378 17.5772 16.7532 15.7436 16.2595L13.6636 23.9844ZM14.0007 24.2102L7.64999 29.0751C6.66425 27.7883 6.13031 26.2124 6.13095 24.5913L14.1309 24.5945L22.1309 24.5976C22.1317 22.6987 21.5062 20.8526 20.3515 19.3452L14.0007 24.2102ZM14.1309 24.5945H6.13095V26.7368H14.1309H22.1309V24.5945H14.1309ZM14.1309 26.7368V34.7368H17.7432V26.7368V18.7368H14.1309V26.7368ZM17.7432 26.7368H25.7432V24.5945H17.7432H9.74316V26.7368H17.7432ZM17.7432 24.5945L25.7432 24.5913C25.7438 26.2124 25.2099 27.7883 24.2241 29.0751L17.8734 24.2102L11.5226 19.3452C10.3679 20.8526 9.74241 22.6987 9.74316 24.5976L17.7432 24.5945ZM17.8734 24.2102L24.2241 29.0751C23.2384 30.3619 21.8558 31.2878 20.2905 31.7092L18.2105 23.9844L16.1305 16.2595C14.2969 16.7532 12.6773 17.8378 11.5226 19.3452L17.8734 24.2102ZM18.2105 23.9844L20.3055 31.7052C21.6537 31.3394 22.9507 30.8055 24.1658 30.1162L20.2185 23.1578L16.2713 16.1995C16.2223 16.2273 16.17 16.2488 16.1156 16.2635L18.2105 23.9844ZM20.2185 23.1578L24.1636 30.1175C22.7588 30.9137 21.1315 31.2266 19.5317 31.0079L20.615 23.0816L21.6982 15.1553C19.8246 14.8992 17.9187 15.2656 16.2735 16.1982L20.2185 23.1578ZM20.615 23.0816L19.5317 31.0079C17.9319 30.7893 16.4482 30.0513 15.3086 28.9073L20.9764 23.2614L26.6442 17.6155C25.3096 16.2757 23.5719 15.4114 21.6982 15.1553L20.615 23.0816ZM20.9764 23.2614L15.3125 28.9112L16.8207 30.4232L22.4846 24.7734L28.1486 19.1237L26.6404 17.6117L20.9764 23.2614ZM22.4846 24.7734L28.1406 30.4312L30.6985 27.8742L25.0425 22.2164L19.3866 16.5586L16.8287 19.1156L22.4846 24.7734ZM25.0425 22.2164L30.6923 16.5524L29.1799 15.0438L23.5301 20.7077L17.8804 26.3717L19.3928 27.8803L25.0425 22.2164ZM23.5301 20.7077L29.1818 15.0457C30.3226 16.1845 31.0586 17.6659 31.2768 19.263L23.3505 20.3463L15.4242 21.4295C15.6799 23.3004 16.542 25.0358 17.8784 26.3698L23.5301 20.7077ZM23.3505 20.3463L31.2768 19.263C31.4951 20.8601 31.1836 22.4847 30.3902 23.8878L23.4265 19.9498L16.4629 16.0119C15.5334 17.6555 15.1685 19.5586 15.4242 21.4295L23.3505 20.3463ZM23.4265 19.9498L30.3828 23.9009C31.0735 22.6847 31.6084 21.3864 31.9747 20.0365L24.2539 17.9414L16.5331 15.8463C16.5187 15.8996 16.4976 15.9508 16.4703 15.9988L23.4265 19.9498ZM24.2539 17.9414L31.9828 20.0064C31.118 23.243 28.188 25.4741 24.8636 25.4741V17.4741V9.47405C20.9673 9.47405 17.5371 12.0882 16.525 15.8764L24.2539 17.9414ZM24.8636 17.4741V25.4741H27.3684V17.4741V9.47405H24.8636V17.4741ZM27.3684 17.4741V25.4741C25.4142 25.4741 23.54 24.6978 22.1582 23.3159L27.815 17.659L33.4719 12.0022C31.8531 10.3834 29.6576 9.47405 27.3684 9.47405V17.4741ZM27.815 17.659L22.1582 23.3159C20.7763 21.934 20 20.0598 20 18.1056H28H36C36 15.8164 35.0906 13.6209 33.4719 12.0022L27.815 17.659ZM28 18.1056H20C20 16.1514 20.7763 14.2772 22.1582 12.8954L27.815 18.5522L33.4719 24.2091C35.0906 22.5903 36 20.3948 36 18.1056H28ZM27.815 18.5522L22.1582 12.8954C23.54 11.5135 25.4142 10.7372 27.3684 10.7372V18.7372V26.7372C29.6576 26.7372 31.8531 25.8278 33.4719 24.2091L27.815 18.5522ZM27.3684 18.7372V10.7372H25.3347V18.7372V26.7372H27.3684V18.7372ZM25.3347 18.7372L17.7284 16.2585C17.6972 16.3544 17.6586 16.4479 17.6131 16.538L24.7541 20.1444L31.8951 23.7508C32.3078 22.9337 32.6574 22.0863 32.941 21.216L25.3347 18.7372ZM24.7541 20.1444L19.1046 25.8085L20.7328 27.4325L26.3823 21.7684L32.0318 16.1042L30.4036 14.4802L24.7541 20.1444ZM26.3823 21.7684L20.7251 27.4248C19.3444 26.044 18.5684 24.1716 18.5675 22.219L26.5675 22.2152L34.5675 22.2115C34.5664 19.9236 33.6572 17.7298 32.0396 16.1119L26.3823 21.7684ZM26.5675 22.2152L18.5675 22.219C18.5666 20.2664 19.3408 18.3933 20.7202 17.0111L26.3827 22.6623L32.0453 28.3134C33.6614 26.694 34.5686 24.4993 34.5675 22.2115L26.5675 22.2152ZM26.3827 22.6623L20.7259 17.0054L17.2741 20.4572L22.9309 26.1141L28.5878 31.7709L32.0396 28.3191L26.3827 22.6623ZM22.9309 26.1141L17.2759 20.4554C18.6572 19.0749 20.5301 18.2993 22.4829 18.2989L22.4846 26.2989L22.4863 34.2989C24.774 34.2984 26.9679 33.3898 28.586 31.7727L22.9309 26.1141ZM22.4846 26.2989V18.2989H22.4838V26.2989V34.2989H22.4846V26.2989ZM22.4838 26.2989L22.4908 18.2989C24.4444 18.3006 26.3173 19.0781 27.6979 20.4603L22.0375 26.1136L16.3771 31.767C17.9943 33.3862 20.1883 34.2969 22.4767 34.2989L22.4838 26.2989ZM22.0375 26.1136L27.7009 20.4634L26.0765 18.8352L20.4131 24.4854L14.7496 30.1357L16.374 31.7639L22.0375 26.1136ZM20.4131 24.4854L16.8051 17.3452C16.7169 17.3898 16.6255 17.4275 16.5315 17.458L19.0063 25.0656L21.4811 32.6732C22.3533 32.3895 23.2024 32.0393 24.021 31.6256L20.4131 24.4854ZM19.0063 25.0656H11.0063V27.3684H19.0063H27.0063V25.0656H19.0063ZM19.0063 27.3684H11.0063C11.0063 25.4142 11.7826 23.54 13.1645 22.1581L18.8213 27.815L24.4782 33.4718C26.0969 31.8531 27.0063 29.6576 27.0063 27.3684H19.0063ZM18.8213 27.815L13.1645 22.1581C14.5463 20.7762 16.4205 19.9999 18.3747 19.9999V27.9999V35.9999C20.664 35.9999 22.8594 35.0906 24.4782 33.4718L18.8213 27.815Z" fill="white" mask="url(#path-1-inside-1_5014_208)"/>
<path d="M16.0002 21.2633C14.0128 21.2633 12.2166 20.1635 11.3114 18.393C11.2351 18.2438 11.2212 18.0704 11.2728 17.911C11.3243 17.7516 11.4371 17.6192 11.5863 17.5429C11.7355 17.4666 11.9089 17.4527 12.0683 17.5043C12.2277 17.5559 12.3602 17.6687 12.4364 17.8178C13.1244 19.1639 14.4899 20.0002 16.0002 20.0002C17.5105 20.0002 18.876 19.1639 19.564 17.8178C19.6429 17.6733 19.7751 17.5652 19.9324 17.5166C20.0898 17.468 20.2599 17.4828 20.4065 17.5578C20.5531 17.6327 20.6647 17.762 20.7175 17.918C20.7703 18.074 20.7601 18.2444 20.6891 18.393C20.2497 19.2585 19.5787 19.9851 18.7509 20.4918C17.9231 20.9986 16.9708 21.2657 16.0002 21.2633ZM8.21074 12.2107C6.60653 12.2107 5.30127 10.9054 5.30127 9.30121C5.30127 7.697 6.60653 6.39258 8.21074 6.39258C9.81495 6.39258 11.1202 7.69784 11.1202 9.30163C11.1202 10.9054 9.81495 12.2107 8.21074 12.2107ZM8.21074 7.65574C7.30337 7.65574 6.56443 8.39384 6.56443 9.30163C6.56443 10.2094 7.3038 10.9475 8.21074 10.9475C9.11769 10.9475 9.85706 10.2094 9.85706 9.30121C9.85706 8.393 9.11811 7.65574 8.21074 7.65574Z" fill="white"/>
<path d="M8.84211 15.7896H4.63158C4.46407 15.7896 4.30343 15.7231 4.18499 15.6046C4.06654 15.4862 4 15.3256 4 15.1581C4 12.8364 5.88884 10.9475 8.21053 10.9475C9.94274 10.9475 11.5217 12.033 12.1394 13.6486C12.169 13.7261 12.183 13.8086 12.1807 13.8915C12.1783 13.9745 12.1597 14.0561 12.1258 14.1318C12.0919 14.2075 12.0435 14.2758 11.9832 14.3328C11.9229 14.3898 11.852 14.4344 11.7745 14.4639C11.697 14.4935 11.6145 14.5076 11.5316 14.5052C11.4486 14.5029 11.367 14.4843 11.2913 14.4504C11.2156 14.4165 11.1473 14.3681 11.0903 14.3078C11.0333 14.2475 10.9887 14.1766 10.9592 14.0991C10.5276 12.9703 9.42232 12.2107 8.21053 12.2107C6.80211 12.2107 5.62105 13.2035 5.33137 14.5265H8.84211C9.00961 14.5265 9.17025 14.593 9.2887 14.7115C9.40714 14.8299 9.47368 14.9905 9.47368 15.1581C9.47368 15.3256 9.40714 15.4862 9.2887 15.6046C9.17025 15.7231 9.00961 15.7896 8.84211 15.7896ZM23.7895 12.2107C22.1853 12.2107 20.88 10.9054 20.88 9.30121C20.88 7.697 22.1853 6.39258 23.7895 6.39258C25.3937 6.39258 26.6989 7.69784 26.6989 9.30163C26.6989 10.9054 25.3937 12.2107 23.7895 12.2107ZM23.7895 7.65574C22.8821 7.65574 22.1432 8.39384 22.1432 9.30163C22.1432 10.2094 22.8825 10.9475 23.7895 10.9475C24.6964 10.9475 25.4358 10.2094 25.4358 9.30121C25.4358 8.393 24.6968 7.65574 23.7895 7.65574Z" fill="white"/>
<path d="M27.3683 15.7895H23.1577C22.9902 15.7895 22.8296 15.7229 22.7111 15.6045C22.5927 15.486 22.5262 15.3254 22.5262 15.1579C22.5262 14.9904 22.5927 14.8297 22.7111 14.7113C22.8296 14.5929 22.9902 14.5263 23.1577 14.5263H26.6685C26.3784 13.2034 25.1977 12.2105 23.7893 12.2105C22.5771 12.2105 21.4723 12.9697 21.0407 14.0994C20.9809 14.2559 20.8614 14.3822 20.7084 14.4506C20.5555 14.519 20.3816 14.5238 20.2251 14.464C20.0686 14.4042 19.9423 14.2847 19.8739 14.1317C19.8055 13.9788 19.8007 13.8049 19.8605 13.6484C20.4782 12.0328 22.0571 10.9474 23.7893 10.9474C26.111 10.9474 27.9998 12.8362 27.9998 15.1579C27.9998 15.3254 27.9333 15.486 27.8149 15.6045C27.6964 15.7229 27.5358 15.7895 27.3683 15.7895ZM15.9998 11.1579C14.0264 11.1579 12.4209 9.55242 12.4209 7.57895C12.4209 5.60547 14.0264 4 15.9998 4C17.9733 4 19.5788 5.60547 19.5788 7.57895C19.5788 9.55242 17.9733 11.1579 15.9998 11.1579ZM15.9998 5.26316C14.7232 5.26316 13.6841 6.30189 13.6841 7.57895C13.6841 8.856 14.7232 9.89474 15.9998 9.89474C17.2765 9.89474 18.3156 8.856 18.3156 7.57895C18.3156 6.30189 17.2765 5.26316 15.9998 5.26316Z" fill="white"/>
<path d="M20.6316 15.7893H11.3684C11.2009 15.7893 11.0402 15.7227 10.9218 15.6043C10.8034 15.4858 10.7368 15.3252 10.7368 15.1577C10.7368 12.2554 13.0977 9.89453 16 9.89453C18.9023 9.89453 21.2631 12.2554 21.2631 15.1577C21.2631 15.3252 21.1966 15.4858 21.0781 15.6043C20.9597 15.7227 20.7991 15.7893 20.6316 15.7893ZM12.0497 14.5261H19.9503C19.6463 12.6196 17.9911 11.1577 16 11.1577C14.0088 11.1577 12.3537 12.6196 12.0497 14.5261Z" fill="white"/>
</svg>
