<svg width="52" height="52" viewBox="0 0 52 52" fill="none" xmlns="http://www.w3.org/2000/svg">
<circle cx="26" cy="26" r="25.5" fill="white" stroke="#0D9488"/>
<path d="M37.5554 39.0007V36.1118C37.5554 34.5794 36.9467 33.1098 35.8632 32.0263C34.7796 30.9427 33.31 30.334 31.7777 30.334H20.2221C18.6898 30.334 17.2202 30.9427 16.1366 32.0263C15.0531 33.1098 14.4443 34.5794 14.4443 36.1118V39.0007" stroke="#0D9488" stroke-width="2" stroke-linecap="round" stroke-linejoin="round"/>
<path d="M25.9999 24.5556C29.1909 24.5556 31.7777 21.9688 31.7777 18.7778C31.7777 15.5868 29.1909 13 25.9999 13C22.809 13 20.2222 15.5868 20.2222 18.7778C20.2222 21.9688 22.809 24.5556 25.9999 24.5556Z" stroke="#0D9488" stroke-width="2" stroke-linecap="round" stroke-linejoin="round"/>
</svg>
